<svg width="19" height="18" viewBox="0 0 19 18" fill="none" xmlns="http://www.w3.org/2000/svg">
<g clip-path="url(#clip0_27_678)">
<path d="M12.5723 2.71252C11.2553 2.71252 9.9912 3.3018 9.16616 4.23299C8.34111 3.3018 7.07705 2.71252 5.76 2.71252C3.42868 2.71252 1.59692 4.47307 1.59692 6.71376C1.59692 9.4637 4.17046 11.7044 8.06862 15.1091L9.16616 16.0621L10.2637 15.1018C14.1619 11.7044 16.7354 9.4637 16.7354 6.71376C16.7354 4.47307 14.9036 2.71252 12.5723 2.71252ZM9.24185 14.0251L9.16616 14.0979L9.09046 14.0251C5.48751 10.8896 3.11077 8.81622 3.11077 6.71376C3.11077 5.25876 4.24616 4.16752 5.76 4.16752C6.92566 4.16752 8.06105 4.88774 8.46222 5.88441H9.87766C10.2713 4.88774 11.4066 4.16752 12.5723 4.16752C14.0862 4.16752 15.2215 5.25876 15.2215 6.71376C15.2215 8.81622 12.8448 10.8896 9.24185 14.0251Z" fill="white"/>
</g>
<defs>
<clipPath id="clip0_27_678">
<rect width="18.1662" height="17.4599" fill="white" transform="translate(0.0830688 0.530029)"/>
</clipPath>
</defs>
</svg>
